<svg width="120" height="120" viewBox="0 0 120 120" fill="none" xmlns="http://www.w3.org/2000/svg" role="img" aria-label="Padharo">
  <!-- teal puddle -->
  <ellipse cx="64" cy="106" rx="30" ry="6.5" fill="#1B9E9E"/>
  <!-- cream onion-dome arch behind the letterform -->
  <path d="M60 6c9 13 22 19 22 35 0 4-1 8-3 11H41c-2-3-3-7-3-11 0-16 13-22 22-35Z" fill="#FAF0E6"/>
  <!-- maroon P letterform: tall stem + rounded bowl -->
  <path d="M34 26h20c17 0 29 11 29 27S71 80 54 80h-4v34H34V26Zm16 16v22h4c8 0 13-4 13-11s-5-11-13-11h-4Z" fill="#8C1D40"/>
  <!-- cream location pin sitting in the bowl counter -->
  <path d="M63 45c9 0 16 7 16 16 0 11-16 25-16 25S47 72 47 61c0-9 7-16 16-16Z" fill="#FAF0E6"/>
  <circle cx="63" cy="61" r="6.5" fill="#8C1D40"/>
</svg>
